<svg xmlns="http://www.w3.org/2000/svg" viewBox="0 0 200 140">
  <!-- ciel -->
  <rect width="200" height="140" fill="#6ec3f4"/>
  <ellipse cx="40" cy="26" rx="22" ry="7" fill="#fff" opacity="0.85"/>
  <ellipse cx="160" cy="44" rx="18" ry="6" fill="#fff" opacity="0.85"/>
  <!-- tour -->
  <rect x="58" y="14" width="84" height="116" fill="#a89880"/>
  <rect x="62" y="20" width="12" height="106" fill="#3d3a36"/>
  <rect x="64" y="58" width="8" height="12" fill="#cfd8dc"/>
  <!-- étages -->
  <rect x="76" y="20" width="62" height="20" fill="#c9dcef"/>
  <rect x="76" y="42" width="62" height="20" fill="#f4a261"/>
  <rect x="76" y="64" width="62" height="20" fill="#e57a9e"/>
  <rect x="76" y="86" width="62" height="20" fill="#e8d5c4"/>
  <text x="112" y="58" font-size="13" text-anchor="middle">🍟</text>
  <text x="112" y="80" font-size="13" text-anchor="middle">🎤</text>
  <!-- hall et enseigne -->
  <rect x="76" y="108" width="62" height="22" fill="#d9cbb0"/>
  <rect x="80" y="110" width="54" height="7" fill="#1f3b5a"/>
  <text x="107" y="116" font-family="monospace" font-weight="bold" font-size="5.5" text-anchor="middle" fill="#ffd23f">CITÉ PETIT PRINCE</text>
  <!-- toit -->
  <rect x="54" y="10" width="92" height="5" fill="#8a7c68"/>
  <rect x="120" y="-2" width="2" height="12" fill="#6e6252"/>
  <ellipse cx="80" cy="6" rx="6" ry="4" fill="#e8e8e8"/>
  <ellipse cx="96" cy="6" rx="6" ry="4" fill="#e8e8e8"/>
  <!-- rue -->
  <rect y="130" width="200" height="10" fill="#4a4d55"/>
</svg>
