<svg xmlns="http://www.w3.org/2000/svg" viewBox="0 0 200 160" shape-rendering="crispEdges">
  <rect x="0" y="0" width="200" height="160" fill="#17171b" />

  <!-- bezel -->
  <rect x="24" y="40" width="152" height="80" fill="#2a2a30" />
  <!-- screen -->
  <rect x="32" y="48" width="136" height="64" fill="#0b0b0d" />

  <!-- digit "0" -->
  <rect x="54.2" y="58" width="22" height="5.5" fill="#ff5c8a" />
  <rect x="52" y="60.2" width="5.5" height="17.6" fill="#ff5c8a" />
  <rect x="72.9" y="60.2" width="5.5" height="17.6" fill="#ff5c8a" />
  <rect x="54.2" y="77.25" width="22" height="5.5" fill="#3a1f28" />
  <rect x="52" y="82.2" width="5.5" height="17.6" fill="#ff5c8a" />
  <rect x="72.9" y="82.2" width="5.5" height="17.6" fill="#ff5c8a" />
  <rect x="54.2" y="96.5" width="22" height="5.5" fill="#ff5c8a" />

  <!-- digit "7" -->
  <rect x="92.2" y="58" width="22" height="5.5" fill="#ff5c8a" />
  <rect x="90" y="60.2" width="5.5" height="17.6" fill="#3a1f28" />
  <rect x="110.9" y="60.2" width="5.5" height="17.6" fill="#ff5c8a" />
  <rect x="92.2" y="77.25" width="22" height="5.5" fill="#3a1f28" />
  <rect x="90" y="82.2" width="5.5" height="17.6" fill="#3a1f28" />
  <rect x="110.9" y="82.2" width="5.5" height="17.6" fill="#ff5c8a" />
  <rect x="92.2" y="96.5" width="22" height="5.5" fill="#3a1f28" />

  <!-- power dot -->
  <circle cx="150" cy="58" r="3" fill="#ffc93c" />

  <!-- scanlines -->
  <g fill="#ffffff" opacity="0.05">
    <rect x="32" y="48" width="136" height="2" />
    <rect x="32" y="54" width="136" height="2" />
    <rect x="32" y="60" width="136" height="2" />
    <rect x="32" y="66" width="136" height="2" />
    <rect x="32" y="72" width="136" height="2" />
    <rect x="32" y="78" width="136" height="2" />
    <rect x="32" y="84" width="136" height="2" />
    <rect x="32" y="90" width="136" height="2" />
    <rect x="32" y="96" width="136" height="2" />
    <rect x="32" y="102" width="136" height="2" />
    <rect x="32" y="108" width="136" height="2" />
  </g>

  <!-- label ticks -->
  <rect x="40" y="118" width="120" height="3" fill="#5a5a60" />
</svg>
